<?xml version="1.0" encoding="UTF-8" standalone="no"?>
<!DOCTYPE svg PUBLIC "-//W3C//DTD SVG 1.1//EN" "http://www.w3.org/Graphics/SVG/1.1/DTD/svg11.dtd">
<!-- Created with Inkscape (http://www.inkscape.org/) -->
<svg
   xmlns:svg="http://www.w3.org/2000/svg"
   xmlns:xlink="http://www.w3.org/1999/xlink"
   xmlns="http://www.w3.org/2000/svg"
   version="1.1"
   width="400"
   height="400"
   id="svg2649">
  <defs
     id="defs2696" />
  <title
     id="title2651">generated by pstoedit version:3.45 from L:/svg/cern.eps</title>
  <g
     id="g3181">
    <path
       d="M 151.22294,16.583514 C 73.260156,16.58357 9.999994,79.843618 9.999994,157.80646 C 10.000022,169.33404 11.379797,180.85583 14.167712,192.03339 C 14.167743,192.03333 44.374449,312.86034 44.374449,312.86034 C 44.374473,312.86034 64.032802,302.2013 64.032802,302.2013 C 64.032804,302.2013 53.447535,259.74959 53.447535,259.74959 C 79.752072,284.97187 114.78329,299.02941 151.22294,299.02941 C 162.6478,299.02949 173.99515,297.67945 185.08104,294.93546 C 185.08104,294.93548 100.56093,382.59814 99.771908,383.41649 C 111.22746,383.41649 116.11895,383.41649 129.35164,383.41649 C 130.14501,382.59759 252.6866,256.09823 252.6866,256.09823 C 266.13217,242.21872 276.60014,225.6885 283.40969,207.59779 C 283.40965,207.59772 319.71974,382.6129 319.88644,383.41649 C 326.42062,383.41649 337.43838,383.41649 342.20033,383.41649 C 342.0337,382.61171 289.53218,129.11191 289.53218,129.11191 C 281.83542,91.891672 259.48651,59.41571 227.49588,38.897404 C 227.49585,38.897318 389.48527,38.897404 390.00001,38.897404 C 390.00001,34.568007 390.00001,18.749031 390.00001,16.583514 C 389.48476,16.583569 151.22294,16.583514 151.22294,16.583514 z M 151.33359,39.081816 C 217.25922,39.081793 270.72212,92.587128 270.72212,158.50723 C 270.72209,224.42734 217.2592,277.96953 151.33359,277.96953 C 85.418906,277.96946 31.834412,224.42733 31.834412,158.50723 C 31.834441,92.587152 85.418894,39.081816 151.33359,39.081816 z M 203.96486,57.523048 C 203.20669,57.516989 202.47094,57.535696 201.71503,57.55993 C 154.84847,59.062375 111.62184,83.767251 86.531104,123.61642 C 86.531127,123.61634 104.89857,123.61642 104.89857,123.61642 C 128.74345,91.559282 166.3145,72.68174 206.25158,72.68174 C 215.65561,72.681681 225.00824,73.665386 234.1716,75.742984 C 227.16333,68.709363 219.26199,62.676472 210.71435,57.633695 C 209.20577,57.577727 207.74895,57.55993 206.25158,57.55993 C 205.49208,57.55993 204.72304,57.529106 203.96486,57.523048 z M 357.91226,66.743663 C 357.91226,66.743633 341.72086,158.24905 341.72086,158.24905 C 329.93499,118.99318 301.70025,86.785959 264.34146,69.952437 C 270.92427,78.374881 276.56369,87.613991 281.12298,97.282342 C 313.4747,121.08224 332.53713,158.75619 332.53713,198.93041 C 332.53709,219.29464 327.61351,239.43984 318.18985,257.49976 C 318.18982,257.49975 322.65263,279.26041 322.65263,279.26041 C 334.17543,262.54724 341.95075,243.58828 345.48287,223.60478 C 345.48287,223.60479 373.29225,66.743663 373.29225,66.743663 C 373.29225,66.74366 357.91226,66.743663 357.91226,66.743663 z M 64.917981,193.43492 C 64.841266,195.29414 64.733568,197.07121 64.733568,198.93041 C 64.733593,214.48427 67.302137,229.99041 72.331356,244.70154 C 79.656213,251.40752 87.784033,257.14134 96.563133,261.77812 C 85.608511,242.65974 79.855378,220.9579 79.855378,198.93041 C 79.855354,197.07114 79.952476,195.29412 80.03979,193.43492 C 80.039767,193.43496 64.917981,193.43492 64.917981,193.43492 z M 297.64632,286.19432 C 273.80309,311.18422 240.78914,325.28973 206.25158,325.28973 C 200.56712,325.28974 194.84228,324.91076 189.21188,324.14637 C 189.21183,324.1463 176.59808,337.27653 176.59808,337.27653 C 186.35032,339.36541 196.28158,340.44842 206.25158,340.44842 C 241.39086,340.44851 275.192,327.39954 301.22392,303.78725 C 301.22388,303.78726 297.64632,286.19432 297.64632,286.19432 z M 99.882555,292.3168 C 113.57048,307.90156 130.55078,320.29598 149.56323,328.60915 C 149.56323,328.60917 160.84927,316.88052 160.84927,316.88052 C 150.1348,312.75894 140.08038,307.20314 130.86382,300.35718 C 120.29153,298.8367 109.86429,296.13319 99.882555,292.3168 z"
       id="path2797"
       style="fill:#ffffff;fill-opacity:1;fill-rule:nonzero;stroke-width:0;stroke-linecap:butt;stroke-linejoin:miter;stroke-miterlimit:2.61310005" />
    <g
       transform="matrix(2.7988304,0,0,2.7999872,-78.22184,-83.809933)"
       id="g3725"
       style="fill:#ffffff;fill-opacity:1">
      <path
         d="M 64.32703,79.14032 C 64.04973,79.14032 63.71763,79.08632 63.44033,79.19932 C 63.49113,81.19132 63.32703,83.18732 63.49113,85.18332 C 66.04183,85.12932 68.59263,85.29332 71.14343,85.07432 C 71.19813,85.51532 71.08873,85.90632 71.19813,86.34732 C 68.59263,86.18332 66.04183,86.18332 63.44033,86.29332 C 63.49113,88.61732 63.32703,90.94932 63.49113,93.27732 C 66.31923,93.27732 69.14733,93.27732 71.97543,93.00032 C 71.86613,93.44532 71.86613,93.94132 71.97543,94.38732 C 68.37393,94.38732 64.76843,94.38732 61.16683,94.38732 C 61.16683,88.95332 61.16683,83.46532 61.16683,78.03532 C 64.71373,78.09032 68.26063,77.92232 71.80753,78.09032 C 71.69813,78.53132 71.75283,79.03132 71.80753,79.47632 C 69.31533,79.03132 66.82313,79.14032 64.32703,79.14032 z"
         id="path2681"
         style="fill:#ffffff;fill-opacity:1;fill-rule:nonzero;stroke-width:0;stroke-linecap:butt;stroke-linejoin:miter;stroke-miterlimit:2.61310005" />
      <path
         d="M 82.89343,84.90632 C 83.62003,84.52332 84.22543,83.96532 84.55753,83.18732 C 85.00283,81.96932 84.83483,80.52732 83.72543,79.64032 C 83.00283,79.08632 82.12003,78.92232 81.28403,78.92232 C 79.79183,78.80832 78.29183,78.75432 76.79973,78.97232 C 76.85433,81.19132 76.68643,83.35532 76.85433,85.57432 C 78.84653,85.51532 81.01063,85.90632 82.89343,84.90632 z M 77.46373,86.40232 C 77.29573,86.40232 76.96373,86.34732 76.96373,86.46132 C 76.79973,89.12132 76.90903,91.78132 76.90903,94.44132 C 76.13173,94.38732 75.40903,94.38732 74.63563,94.44132 C 74.63563,88.95332 74.63563,83.52332 74.63563,78.03532 C 77.68253,78.14432 80.62003,77.81232 83.72543,78.25832 C 84.88953,78.42232 86.10823,78.80832 86.77233,79.86332 C 87.54973,81.08232 87.38563,82.58232 86.60823,83.80132 C 85.44423,85.40632 83.61613,85.84732 81.83873,86.29332 C 84.22543,89.06632 86.60823,91.78132 89.04573,94.44132 C 88.04973,94.38732 86.99503,94.38732 85.99893,94.44132 C 83.78013,91.66832 81.45203,88.95332 79.01453,86.40232 C 78.51453,86.40232 77.95983,86.40232 77.46373,86.40232 z"
         id="path2685"
         style="fill:#ffffff;fill-opacity:1;fill-rule:nonzero;stroke-width:0;stroke-linecap:butt;stroke-linejoin:miter;stroke-miterlimit:2.61310005" />
      <path
         d="M 92.81533,82.02332 C 92.62003,81.82832 92.37393,81.35932 92.04183,81.58232 C 92.04183,85.84732 92.04183,90.17232 92.04183,94.44132 C 91.54183,94.38732 91.09653,94.32832 90.60043,94.44132 C 90.60043,88.95332 90.60043,83.52332 90.60043,78.03532 C 90.92863,78.03532 91.31923,77.92232 91.48723,78.09032 C 96.03013,82.13732 99.85443,86.23832 104.23743,90.39432 C 104.29143,90.39432 104.51043,90.44932 104.51043,90.34032 C 104.56543,86.23832 104.51043,82.18732 104.51043,78.09032 C 105.01043,78.14432 105.45643,78.14432 105.95243,78.09032 C 105.95243,83.52332 106.12043,89.00832 105.84243,94.44132 C 105.84243,94.44132 105.34643,94.55132 105.22943,94.38732 C 101.01843,90.17232 97.03013,86.23832 92.81533,82.02332 z"
         id="path2689"
         style="fill:#ffffff;fill-opacity:1;fill-rule:nonzero;stroke-width:0;stroke-linecap:butt;stroke-linejoin:miter;stroke-miterlimit:2.61310005" />
      <path
         d="M 57.33873,79.86332 C 54.35043,77.72632 50.13563,78.09032 47.69813,80.85932 C 45.92473,82.91432 45.53793,85.62932 46.08873,88.28932 C 46.53403,90.67232 48.08483,92.55832 50.30363,93.38732 C 53.13173,94.44132 56.28793,93.66432 58.61613,91.89432 C 58.61613,92.39032 58.50673,92.89032 58.50673,93.38732 C 56.39733,94.55132 53.95983,94.82832 51.57703,94.71932 C 48.75283,94.55132 45.92473,93.33232 44.42473,90.78132 C 42.93253,88.12132 42.76453,84.85132 44.31533,82.13732 C 47.25283,77.03532 54.12783,76.81232 59.00673,78.80832 C 58.72933,79.36732 58.61613,80.03132 58.45203,80.64032 C 58.00673,80.52732 57.72933,80.14032 57.33873,79.86332 z"
         id="path2693"
         style="fill:#ffffff;fill-opacity:1;fill-rule:nonzero;stroke-width:0;stroke-linecap:butt;stroke-linejoin:miter;stroke-miterlimit:2.61310005" />
    </g>
  </g>
</svg>
